<?xml version="1.0" encoding="UTF-8" standalone="no"?>
<svg
   xmlns:dc="http://purl.org/dc/elements/1.1/"
   xmlns:cc="http://creativecommons.org/ns#"
   xmlns:rdf="http://www.w3.org/1999/02/22-rdf-syntax-ns#"
   xmlns:svg="http://www.w3.org/2000/svg"
   xmlns="http://www.w3.org/2000/svg"
   xmlns:sodipodi="http://sodipodi.sourceforge.net/DTD/sodipodi-0.dtd"
   xmlns:inkscape="http://www.inkscape.org/namespaces/inkscape"
   width="210mm"
   height="297mm"
   viewBox="0 0 210 297"
   version="1.1"
   id="svg8"
   inkscape:version="1.0.2 (e86c870879, 2021-01-15)"
   sodipodi:docname="random_shape.svg">
  <defs
     id="defs2" />
  <sodipodi:namedview
     id="base"
     pagecolor="#ffffff"
     bordercolor="#666666"
     borderopacity="1.0"
     inkscape:pageopacity="0.0"
     inkscape:pageshadow="2"
     inkscape:zoom="0.9899495"
     inkscape:cx="283.51665"
     inkscape:cy="662.72084"
     inkscape:document-units="mm"
     inkscape:current-layer="layer1"
     inkscape:document-rotation="0"
     showgrid="false"
     inkscape:window-width="1916"
     inkscape:window-height="1161"
     inkscape:window-x="0"
     inkscape:window-y="757"
     inkscape:window-maximized="1" />
  <metadata
     id="metadata5">
    <rdf:RDF>
      <cc:Work
         rdf:about="">
        <dc:format>image/svg+xml</dc:format>
        <dc:type
           rdf:resource="http://purl.org/dc/dcmitype/StillImage" />
        <dc:title />
      </cc:Work>
    </rdf:RDF>
  </metadata>
  <g
     inkscape:label="Layer 1"
     inkscape:groupmode="layer"
     id="layer1">
    <path
       style="fill:#010202;stroke-width:0.377976"
       d="m 84.254597,177.40469 c -2.97999,0.32148 -6.51094,0.67925 -8.69714,2.9271 -1.01476,2.36199 -1.16691,5.05365 -2.63919,7.2598 -2.26951,5.01162 -3.44056,10.44348 -4.79633,15.74782 -1.07256,5.32365 -1.00718,11.964 -6.078608,15.30824 -1.186309,1.11427 -3.506739,1.9298 -4.38142,0.0221 -2.09168,-3.93732 -3.896993,-8.07041 -6.837532,-11.48398 -0.961199,-1.76324 -1.949775,-3.48024 -3.076961,-5.11671 -3.917016,-8.30814 -10.202349,-16.48971 -19.327725,-19.25833 -5.291667,-0.89384 -10.627619,0.86125 -15.906813,1.20669 -3.4971493,0.23585 -6.9877183,0.99013 -10.0576413,2.72737 0.145267,3.44286 0.121608,6.99086 1.477208,10.20978 0.147141,4.07642 4.099971,6.56998 6.5381933,9.36726 1.933541,2.35069 4.625721,3.76551 7.575378,4.35136 4.409234,1.32497 8.237958,4.58208 9.718122,9.01237 1.079354,3.62193 0.606798,7.5864 0.228116,11.30311 -0.32843,3.30286 -3.090418,5.45181 -5.865275,6.81169 -1.793463,0.96569 -0.855716,3.53226 -2.552079,4.66048 -2.843461,1.99536 -5.803617,3.89702 -8.064476,6.61089 -2.4842263,2.36284 -1.9700533,6.1361 -3.1729653,9.12083 -1.308957,4.47985 -2.796032,9.34261 -0.869609,13.89585 0.452046,2.35091 2.271988,4.17884 4.6789323,4.43827 4.718354,0.66125 9.873106,1.01014 14.346853,-0.93165 3.189005,-1.7799 5.649481,-4.70018 9.202836,-5.86306 3.040993,-1.59761 2.202852,-5.65657 3.572319,-8.31769 0.78944,-2.55393 1.044538,-5.42338 3.373445,-7.16663 1.753548,-2.76828 5.451171,-1.02513 8.013438,-1.02122 2.52013,0.35927 6.520154,0.85948 6.581556,4.18962 0.58275,2.76063 0.340341,5.61179 -0.905619,8.14932 -1.661395,6.29109 1.021583,12.53503 2.614086,18.52083 0.28955,2.4491 0.03261,5.12106 1.892671,7.07561 1.212974,1.89905 2.934948,4.09548 5.505918,3.5535 4.215282,-0.30206 8.614462,0.0937 12.707232,-1.05199 3.31619,-1.34733 4.13442,-5.06554 6.03064,-7.71898 2.71104,-5.23829 3.43474,-11.14891 4.7941,-16.79779 0.75043,-3.19114 2.73831,-5.77061 4.39546,-8.49554 1.17496,-3.6694 4.73563,-5.84632 7.760313,-7.88958 2.57067,-1.11798 6.34167,-1.63214 8.16636,1.04239 3.83525,4.77083 8.25184,9.41833 9.84657,15.50366 0.88879,3.17799 3.24943,5.4784 5.78694,7.41042 1.68642,1.73764 2.77866,4.09638 4.366,5.84607 1.47285,-0.39356 1.31906,-2.21402 2.0988,-3.1316 0.97383,-0.652 0.42886,-2.335 1.76438,-2.7957 1.06069,-0.9751 0.9933,-2.64161 2.28185,-3.52607 2.50348,-2.39444 5.75748,-3.84389 8.31847,-6.2009 1.39291,-0.74937 2.76628,-1.62483 3.1052,-3.31382 1.84206,-3.70279 3.78318,-7.49503 3.66293,-11.75725 0.42649,-4.2294 0.73826,-8.57788 -0.6371,-12.6718 0.11095,-2.49624 1.75105,-5.06423 0.5057,-7.56838 -1.01305,-1.43213 -2.05207,-2.83418 -2.69456,-4.49437 -2.11438,-3.49424 -6.06424,-5.07008 -8.9068,-7.78764 -0.67047,-1.36723 -1.62007,-3.04394 -3.43796,-2.81932 -5.52849,-0.16089 -9.31446,4.40689 -13.22105,7.59496 -2.12103,1.06679 -3.57234,3.43097 -5.95534,3.88016 -2.75472,0.29125 -6.23821,0.77006 -8.04233,-1.90391 -2.05844,-2.25726 -5.15888,-3.43559 -6.44479,-6.39311 -1.45968,-2.79473 -3.520373,-5.48721 -3.208373,-8.82855 -0.47025,-7.25009 0.093,-14.6363 -1.44915,-21.76685 -0.56727,-2.33481 0.58108,-5.19861 -0.87628,-7.23913 -3.16225,-3.41779 -8.14065,-4.04248 -12.53818,-4.43827 h -8e-4 z"
       id="path34" />
  </g>
</svg>
